<?xml version="1.0" encoding="UTF-8"?>
<svg width="133px" height="124px" viewBox="0 0 133 124" version="1.1" xmlns="http://www.w3.org/2000/svg" xmlns:xlink="http://www.w3.org/1999/xlink">
    <!-- Generator: Sketch 41.2 (35397) - http://www.bohemiancoding.com/sketch -->
    <title>Untitled 2</title>
    <desc>Created with Sketch.</desc>
    <defs></defs>
    <g id="Page-1" stroke="none" stroke-width="1" fill="none" fill-rule="evenodd">
        <g id="AdoptAPet_heart_outline" fill="#000000">
            <path d="M94.8,9.76 C110.643718,9.77653546 123.483465,22.6162819 123.5,38.46 C123.5,59 113.58,78 94,94.93 C85.5982918,102.113205 76.3777903,108.279227 66.53,113.3 C53.53,106.75 9.53,81.3 9.53,38.46 C9.49594873,26.4991983 16.8933744,15.7749521 28.0863385,11.5583787 C39.2793026,7.3418054 51.9138805,10.519667 59.78,19.53 C61.488612,21.4706688 63.9493569,22.5827338 66.535,22.5827338 C69.1206431,22.5827338 71.581388,21.4706688 73.29,19.53 C78.7249987,13.3364576 86.5599233,9.77777724 94.8,9.76 L94.8,9.76 Z M94.8,0.76 C83.9690178,0.757414573 73.6641453,5.43051205 66.53,13.58 C56.1895727,1.76426873 39.6034072,-2.39607032 24.9104707,3.1404953 C10.2175342,8.67706092 0.501457922,22.7485629 0.53,38.45 C0.53,94.99 66.53,123.27 66.53,123.27 C66.53,123.27 132.53,95 132.53,38.45 C132.53,17.6288649 115.651135,0.75 94.83,0.75 L94.8,0.76 Z" id="Shape"></path>
        </g>
    </g>
</svg>