<svg xmlns="http://www.w3.org/2000/svg" viewBox="0 0 144 144"><title>AdoptAPet</title><path d="M14.87,61C6.77,64.21,3.57,75.4,7.74,86S21.88,102.69,30,99.51s11.31-14.37,7.13-25S23,57.85,14.87,61Z" fill="#fff"/><path d="M111.59,23.06c-8.1,3.18-11.31,14.37-7.13,25S118.6,64.72,126.7,61.54,138.16,46.82,134,36.18s-14-16.4-22.39-13.12Z" fill="#fff"/><path d="M33,23.21c-8.1,3.18-11.31,14.37-7.13,25S40.05,64.88,48.15,61.7s11.31-14.37,7.13-25S41.15,20,33,23.21Z" fill="#fff"/><path d="M72.54,7.7c-8.1,3.18-11.31,14.37-7.13,25S79.55,49.37,87.65,46.19s11.31-14.37,7.13-25S80.64,4.52,72.54,7.7Z" fill="#fff"/><path d="M68.3,55A25.43,25.43,0,0,0,52,76.82,32.15,32.15,0,0,1,43.9,95.51a26.14,26.14,0,0,0,29,41.81,25.18,25.18,0,0,0,10-7.16,32.28,32.28,0,0,1,26.33-10.34,25.18,25.18,0,0,0,12.23-1.59,26.14,26.14,0,0,0-7.2-50.35,32.15,32.15,0,0,1-18.69-8.15A27.39,27.39,0,0,0,68.3,55Z" fill="#fff"/></svg>