<?xml version="1.0" encoding="UTF-8"?>
<svg width="133px" height="130px" viewBox="0 0 133 130" version="1.1" xmlns="http://www.w3.org/2000/svg" xmlns:xlink="http://www.w3.org/1999/xlink">
    <!-- Generator: Sketch 41.2 (35397) - http://www.bohemiancoding.com/sketch -->
    <title>Untitled</title>
    <desc>Created with Sketch.</desc>
    <defs></defs>
    <g id="Page-1" stroke="none" stroke-width="1" fill="none" fill-rule="evenodd">
        <g id="AdoptAPet_dog_outline" transform="translate(0.000000, 1.000000)" fill="#000000">
            <path d="M39.2,9 C39.4431187,8.98554553 39.6868813,8.98554553 39.93,9 C41.4366743,9.28981652 42.8668207,9.88911596 44.13,10.76 L44.75,10.76 C48.31,10.76 52.44,12.32 55.15,18.31 C56.51,21.31 55.63,23.31 53.1,23.31 C52.4198664,23.2911526 51.7461139,23.1732459 51.1,22.96 C52.4250744,26.4842698 54.1354492,29.8513607 56.2,33 C59.7675074,38.0882793 64.2792599,42.4438689 69.49,45.83 C71.62,47.18 95.05,56.35 102.63,59.31 C102.797193,59.3463913 102.961086,59.3965627 103.12,59.46 L116.8,64.76 C118.35,65.36 119.66,66.55 119.73,67.41 C119.8,68.27 118.52,69.22 116.91,69.53 L110.51,70.74 L122.87,113.57 C123.36,115.28 122.43,116.68 120.79,116.68 L120.61,116.68 C118.747063,116.537704 117.083151,115.461056 116.19,113.82 L109.08,99.72 C108.090148,97.9300035 106.725779,96.3746219 105.08,95.16 L104.84,95 L101.39,108.19 C100.994132,109.867349 99.5915596,111.118075 97.88,111.32 C96.4,111.32 95.28,109.86 95.4,108.07 L95.8,101.68 C95.91,99.89 94.14,86.93 86.9,86.93 C84.42,86.93 64.56,87.86 64.56,87.86 C62.8060366,88.0497389 61.4406278,89.4699326 61.32,91.23 L59.32,115.76 C59.294148,117.40752 58.0638702,118.786793 56.43,119 C54.7609897,118.802469 53.4680023,117.446511 53.35,115.77 L50,88.7 C49.6999435,86.8082283 48.5146979,85.1734067 46.81,84.3 L45.32,83.68 C44.6037146,83.3604938 43.7772558,83.4063551 43.100719,83.8031509 C42.4241821,84.1999467 41.9807592,84.898884 41.91,85.68 L37.52,108.1 C37.18,109.85 35.74,111.29 34.33,111.29 C32.92,111.29 31.82,109.82 31.89,108.03 L34.37,47.23 C34.4079773,45.1603486 34.1486661,43.095962 33.6,41.1 C32.9138138,39.2460405 31.7802292,37.5903201 30.3,36.28 L30.06,36.08 C28.4756249,34.8812321 26.6716046,34.0047025 24.75,33.5 L17.48,31.91 C15.6037002,31.3683391 13.9652263,30.2090748 12.83,28.62 L9.51,23.52 C9.0389185,22.904076 8.88442141,22.1026803 9.09276937,21.3557725 C9.30111733,20.6088647 9.84812375,20.0031515 10.57,19.72 L34.65,9.85 C36.1066356,9.30760533 37.6457875,9.02007145 39.2,9 L39.2,9 Z M39.2,1.66533454e-16 L39.2,1.66533454e-16 C36.4612429,0.025668879 33.7501627,0.55094067 31.2,1.55 L7.14,11.42 C3.97268126,12.7005469 1.54423008,15.3307576 0.52,18.59 C-0.502486132,21.9283667 0.0220977297,25.5490959 1.95,28.46 L5.27,33.56 C7.69830758,37.1284809 11.3532771,39.6801977 15.54,40.73 L22.76,42.31 C23.3374735,42.5125375 23.8881806,42.7845331 24.4,43.12 L24.5,43.21 C24.6928952,43.4557882 24.8604157,43.7204707 25,44 C25.2114471,44.9625574 25.322044,45.9445238 25.33,46.93 L22.85,107.72 C22.6894532,111.10511 23.9091352,114.41052 26.23,116.88 C28.3119948,119.077824 31.2026267,120.328022 34.23,120.34 C38.1994872,120.250527 41.8789581,118.241171 44.1,114.95 L44.35,116.95 C44.9909854,123.142075 50.1269673,127.897139 56.35,128.06 C62.51,128.06 67.74,123 68.26,116.53 L69.87,96.67 C76.23,96.38 82.38,96.12 85.29,96.02 C86.0620668,97.7590821 86.5580329,99.6079897 86.76,101.5 L86.38,107.56 C86.1459455,110.951151 87.3176932,114.289186 89.62,116.79 C91.74056,119.077854 94.7205422,120.375705 97.84,120.37 C101.412903,120.313083 104.790625,118.729776 107.12,116.02 L108.12,117.93 C110.549812,122.594092 115.313125,125.578336 120.57,125.73 L120.75,125.73 C124.282064,125.771167 127.623227,124.130285 129.75,121.31 C131.915132,118.38662 132.567958,114.610613 131.51,111.13 L121.78,77.42 C126.24,75.42 129.03,71.34 128.7,66.81 C128.44,63.28 126.02,58.72 120.04,56.41 L106.37,51.12 C106.07,51 105.76,50.9 105.45,50.8 C86.45,43.37 76.08,39.13 74.1,38.14 C69.9476325,35.3827179 66.351639,31.8681433 63.5,27.78 C63.3466667,27.5666667 63.1933333,27.3366667 63.04,27.09 C64.36,24.97 66.04,20.64 63.35,14.63 C59.95,7.09 53.91,2.52 46.61,1.86 C44.8502806,0.966926664 42.9545109,0.372175395 41,0.1 C40.402521,0.0309188057 39.8014543,-0.0024737882 39.2,-3.38618023e-15 L39.2,1.66533454e-16 Z" id="Shape"></path>
        </g>
    </g>
</svg>