<?xml version="1.0" encoding="UTF-8"?>
<svg width="134px" height="134px" viewBox="0 0 134 134" version="1.1" xmlns="http://www.w3.org/2000/svg" xmlns:xlink="http://www.w3.org/1999/xlink">
    <!-- Generator: Sketch 41.2 (35397) - http://www.bohemiancoding.com/sketch -->
    <title>Untitled 3</title>
    <desc>Created with Sketch.</desc>
    <defs></defs>
    <g id="Page-1" stroke="none" stroke-width="1" fill="none" fill-rule="evenodd">
        <g id="AdoptAPet_paw_outline" fill="#000000">
            <path d="M13.15,63.82 C16.15,62.63 21.3,65.93 23.78,72.13 C26.26,78.33 24.78,84.29 21.83,85.49 C18.88,86.69 13.68,83.38 11.2,77.18 C8.72,70.98 10.2,65.02 13.15,63.82 L13.15,63.82 Z M9.8,55.46 C1.72,58.7 -1.4,69.92 2.85,80.52 C7.1,91.12 17.11,97.07 25.19,93.84 C33.27,90.61 36.39,79.38 32.14,68.78 C27.89,58.18 17.87,52.22 9.8,55.46 Z" id="Shape"></path>
            <path d="M109.59,25.15 C112.75,23.88 117.84,26.78 120.37,33.15 C122.83,39.29 121.24,45.67 118.27,46.86 C115.3,48.05 110.12,44.75 107.64,38.55 C105.16,32.35 106.64,26.39 109.59,25.19 L109.59,25.15 Z M106.24,16.84 C98.16,20 95,31.25 99.29,41.85 C103.58,52.45 113.55,58.4 121.63,55.17 C129.71,51.94 132.98,40.36 128.73,29.76 C124.48,19.16 114.57,13.46 106.24,16.76 L106.24,16.84 Z" id="Shape"></path>
            <path d="M31,25.87 C34,24.68 39.15,27.98 41.63,34.18 C44.11,40.38 42.63,46.34 39.68,47.54 C36.73,48.74 31.53,45.43 29.05,39.23 C26.57,33.03 28.05,27.07 31,25.87 L31,25.87 Z M27.65,17.52 C19.62,20.76 16.49,32 20.75,42.58 C25.01,53.16 35,59.13 43.08,55.89 C51.16,52.65 54.28,41.44 50,30.83 C45.72,20.22 35.77,14.28 27.69,17.52 L27.65,17.52 Z" id="Shape"></path>
            <path d="M70.43,10.08 C73.43,8.89 78.58,12.19 81.06,18.39 C83.54,24.59 82.06,30.55 79.11,31.75 C76.16,32.95 71,29.63 68.48,23.43 C65.96,17.23 67.48,11.27 70.43,10.07 L70.43,10.08 Z M67.08,1.72 C59,5 55.88,16.18 60.13,26.78 C64.38,37.38 74.39,43.34 82.47,40.1 C90.55,36.86 93.67,25.64 89.41,15 C85.15,4.36 75.16,-1.52 67.08,1.72 Z" id="Shape"></path>
            <path d="M66.53,57.36 C72.6677641,55.0725027 79.5584608,56.2146071 84.63,60.36 C91.2410661,66.2097129 99.5635813,69.7694908 108.36,70.51 L108.51,70.51 C116.445024,71.143853 122.899285,77.1574397 124.091781,85.027912 C125.284277,92.8983842 120.901108,100.554006 113.51,103.51 C111.0199,104.515664 108.319794,104.890106 105.65,104.6 L105.38,104.6 C92.6508353,103.647846 80.1974565,108.639535 71.65,118.12 L71.47,118.33 C69.733829,120.398964 67.5104643,122.003772 65,123 C56.2298556,126.50611 46.2765916,122.251929 42.75,113.49 C40.3733482,107.467895 41.5494538,100.623347 45.8,95.74 C51.6935296,89.1007191 55.2728648,80.727882 56,71.88 L56,71.5 C56.4795116,65.1466732 60.5804493,59.639811 66.53,57.36 L66.53,57.36 Z M63.18,49 C54.0038324,52.5941936 47.7304434,61.1665264 47.08,71 C46.517866,77.9523353 43.7099941,84.533285 39.08,89.75 C31.0594503,98.8207928 30.318064,112.212447 37.2883168,122.113158 C44.2585696,132.013869 57.1158204,135.831873 68.36,131.34 C72.2414094,129.796725 75.6779336,127.312118 78.36,124.11 C85.0269572,116.746604 94.7127606,112.862692 104.62,113.58 C108.769621,114.041794 112.968949,113.464473 116.84,111.9 C128.076003,107.380291 134.736052,95.7344188 132.933685,83.7583172 C131.131317,71.7822157 121.338575,62.6124397 109.27,61.6 C102.317665,61.037866 95.736715,58.2299941 90.52,53.6 C82.9129278,47.227037 72.4537233,45.4672587 63.18,49 L63.18,49 Z" id="Shape"></path>
        </g>
    </g>
</svg>