<?xml version="1.0" encoding="UTF-8"?>
<svg width="132px" height="136px" viewBox="0 0 132 136" version="1.1" xmlns="http://www.w3.org/2000/svg" xmlns:xlink="http://www.w3.org/1999/xlink">
    <!-- Generator: Sketch 41.2 (35397) - http://www.bohemiancoding.com/sketch -->
    <title>Untitled</title>
    <desc>Created with Sketch.</desc>
    <defs></defs>
    <g id="Page-1" stroke="none" stroke-width="1" fill="none" fill-rule="evenodd">
        <g id="AdoptAPet_news" fill="#000000">
            <path d="M117.48,40 C117.68,40.16 117.87,40.36 118.07,40.56 C123.336123,45.785734 123.371931,54.2901058 118.15,59.56 L68.67,109.46 C67.9466535,104.680411 65.7065363,100.259773 62.28,96.85 L36.38,71.13 C34.6408765,69.3822594 34.6408765,66.5577406 36.38,64.81 L89,11.73 L118.63,41.11 L117.48,40 Z M23.76,83.84 C20.3657148,80.3809983 15.372095,79.0172147 10.6907962,80.2707322 C6.00949746,81.5242497 2.36556706,85.2009216 1.15397312,89.8932456 C-0.05762083,94.5855696 1.35077536,99.5667908 4.84,102.93 L30.74,128.62 C39.5226267,137.326357 53.6991443,137.268164 62.41,128.49 L124.51,65.87 C128.689841,61.6557253 131.024358,55.9536119 130.999979,50.0180759 C130.975599,44.0825399 128.594319,38.3997964 124.38,34.22 L92.12,2.22 C90.367675,0.473081754 87.532325,0.473081754 85.78,2.22 L30,58.48 C24.7780899,63.7466481 24.8049313,72.2464371 30.06,77.48 L56,103.18 C61.2660351,108.426705 61.2817051,116.948965 56.035,122.215 C50.7882949,127.481035 42.2660351,127.496705 37,122.25 L11.16,96.57 C10.0238953,95.4463997 9.57352496,93.8020456 9.97853905,92.25635 C10.3835531,90.7106544 11.5824204,89.4984452 13.1235391,89.0763499 C14.6646579,88.6542547 16.3138954,89.0863996 17.45,90.21 L43.35,115.9 C44.4807573,117.053895 46.1452047,117.509595 47.7060426,117.092615 C49.2668805,116.675636 50.482311,115.450574 50.8869584,113.886494 C51.2916058,112.322414 50.822784,110.661615 49.66,109.54 L23.76,83.84 Z" id="Shape"></path>
            <polygon id="Shape" points="49.3 70.31 66.07 53.42 85.97 73.16 69.22 90.05"></polygon>
            <polygon id="Shape" points="91.14 28.15 70.29 49.17 73.93 52.78 94.77 31.75"></polygon>
            <polygon id="Shape" points="107.41 44.28 86.56 65.31 90.19 68.91 111.06 47.89"></polygon>
            <polygon id="Shape" points="99.28 36.21 78.42 57.24 82.05 60.85 102.91 39.82"></polygon>
        </g>
    </g>
</svg>